<svg xmlns="http://www.w3.org/2000/svg" viewBox="0 0 100 100">
 <path fill="#FFFFFF" d="m50 2.3984c-26.199 0-47.602 21.402-47.602 47.602s21.402 47.602 47.602 47.602 47.602-21.402 47.602-47.602-21.402-47.602-47.602-47.602zm31.898 48.602-10.398 7.3008-5.6992 4.1016-0.10156 0.10156c-0.39844 0.5-0.39844 1.1992-0.10156 1.6992l0.30078 0.60156s0.39844 0.60156 0.39844 0.89844c0 0.69922-0.60156 1.3008-1.3008 1.3008h-0.10156l-11.801-2.1016h-0.10156c-0.69922 0-1.3008 0.60156-1.1992 1.3984l0.007812 12.699v0.5c0 1.1016-0.89844 1.8984-1.8984 1.8984s-1.8984-0.89844-1.8984-1.8984l-0.003906-0.5v-12.898c0-0.69922-0.5-1.3008-1.1992-1.3984h-0.10156l-11.801 2.1016h-0.10156c-0.69922 0-1.3008-0.60156-1.3008-1.3008 0-0.30078 0.39844-0.89844 0.39844-0.89844l0.30078-0.60156c0.39844-0.5 0.39844-1.1992-0.10156-1.6992l-0.10156-0.10156-5.6992-4.1016-10.191-7.1016c-0.5-0.5-0.5-1.3008 0-1.8008 0.19922-0.19922 0.89844-0.39844 0.89844-0.39844l1.6016-0.39844c0.30078-0.10156 0.5-0.30078 0.80078-0.5 0.69922-0.60156 0.89844-1.6016 0.69922-2.3984l-1.5-5.6016v-0.39844c0-1.3984 1.1016-2.6016 2.6016-2.6016 0.30078 0 0.5 0 0.80078 0.10156l3.5 1c0.80078 0.19922 1.8008-0.10156 2.3984-0.69922 0.19922-0.19922 0.39844-0.5 0.5-0.80078l0.39844-1.6016s0.10156-0.60156 0.39844-0.89844c0.5-0.5 1.3008-0.5 1.8008 0l0.10156 0.10156 4.8984 7s0.39844 0.39844 0.5 0.5c0.19922 0.19922 0.5 0.39844 0.89844 0.39844 0.69922 0 1.3008-0.5 1.3008-1.1992v-0.10156l-0.19922-1.1016-2.5-12.398v-0.20312c0-0.69922 0.60156-1.3008 1.3008-1.3008 0.30078 0 0.89844 0.39844 0.89844 0.39844l1.3984 0.80078c0.30078 0.10156 0.60156 0.19922 0.89844 0.19922 0.89844 0 1.6992-0.5 2.1992-1.1992l3.3984-6.1992c0.5-0.60156 1.1992-1 2-1s1.6016 0.39844 2 1l3.3984 6.1992c0.39844 0.69922 1.3008 1.1992 2.1992 1.1992 0.30078 0 0.60156-0.10156 0.89844-0.19922l1.3984-0.80078s0.60156-0.39844 0.89844-0.39844c0.69922 0 1.3008 0.60156 1.3008 1.3008v0.10156l-2.5 12.398-0.19922 1.1016v0.10156c0 0.69922 0.60156 1.3008 1.3008 1.1992 0.30078 0 0.69922-0.19922 0.89844-0.39844l0.5-0.5 4.8984-7 0.10156-0.10156c0.5-0.5 1.3008-0.5 1.8008 0 0.19922 0.19922 0.39844 0.89844 0.39844 0.89844l0.39844 1.6016c0.10156 0.30078 0.30078 0.5 0.5 0.80078 0.60156 0.69922 1.6016 0.89844 2.3984 0.69922l3.5-1c0.30078-0.10156 0.5-0.10156 0.80078-0.10156 1.3984 0 2.6016 1.1016 2.6016 2.6016v0.39844l-1.5 5.6016c-0.19922 0.80078 0.10156 1.8008 0.69922 2.3984 0.19922 0.19922 0.5 0.39844 0.80078 0.5l1.6016 0.39844s0.60156 0.10156 0.89844 0.39844c0.3125 0.50391 0.3125 1.4023-0.1875 1.9023z"/>
</svg>
